<?xml version="1.0" encoding="utf-8"?>
<!-- Generator: Adobe Illustrator 19.0.0, SVG Export Plug-In . SVG Version: 6.00 Build 0)  -->
<svg version="1.1" id="Layer_1" xmlns="http://www.w3.org/2000/svg" xmlns:xlink="http://www.w3.org/1999/xlink" x="0px" y="0px"
	 viewBox="0 0 400 400" style="enable-background:new 0 0 400 400;" xml:space="preserve">
<style type="text/css">
	.st0{fill:#010101;}
	.st1{fill:none;stroke:#000000;stroke-width:45;stroke-miterlimit:10;}
</style>
<g id="XMLID_1_">
	<path id="XMLID_17_" class="st0" d="M89.7,235.1c-44,0-79.7,35.7-79.7,79.7s35.7,79.7,79.7,79.7s79.7-35.7,79.7-79.7
		S133.7,235.1,89.7,235.1z M129.6,322.8H97.7v31.9H81.8v-31.9H49.9v-15.9h31.9V275h15.9v31.9h31.9V322.8z"/>
	<g id="XMLID_2_">
		<path id="XMLID_4_" class="st1" d="M42.8,56.2C41.2,44.5,49,31,65.5,26.3"/>
		<line id="XMLID_3_" class="st1" x1="392.4" y1="26.5" x2="58.9" y2="26.5"/>
	</g>
	<line id="XMLID_7_" class="st1" x1="392.4" y1="115.7" x2="19.2" y2="115.7"/>
	<line id="XMLID_6_" class="st1" x1="236" y1="191" x2="19.2" y2="191"/>
	<line id="XMLID_5_" class="st1" x1="42.6" y1="71.9" x2="42.6" y2="46.5"/>
</g>
<g id="XMLID_8_">
</g>
<g id="XMLID_9_">
</g>
<g id="XMLID_10_">
</g>
<g id="XMLID_11_">
</g>
<g id="XMLID_12_">
</g>
<g id="XMLID_13_">
</g>
</svg>
